<?xml version="1.0" standalone="no"?>
<!DOCTYPE svg PUBLIC "-//W3C//DTD SVG 20010904//EN"
 "http://www.w3.org/TR/2001/REC-SVG-20010904/DTD/svg10.dtd">
<svg version="1.0" xmlns="http://www.w3.org/2000/svg"
 width="512.000000pt" height="512.000000pt" viewBox="0 0 512.000000 512.000000"
 preserveAspectRatio="xMidYMid meet">

<g transform="translate(0.000000,512.000000) scale(0.100000,-0.100000)"
fill="#ED4385" stroke="none">
<path d="M1610 5099 c-312 -36 -606 -154 -862 -347 -112 -84 -301 -277 -381
-389 -200 -282 -322 -603 -357 -942 -14 -140 -14 -2022 0 -2162 67 -662 433
-1131 970 -1245 91 -19 377 -19 472 1 474 99 843 467 944 944 9 44 19 157 23
272 l7 197 34 68 c45 92 111 154 250 237 149 87 233 151 349 262 290 279 463
605 538 1015 24 132 24 448 0 580 -74 403 -247 733 -529 1006 -105 102 -160
147 -274 221 -343 225 -779 328 -1184 282z m491 -318 c611 -123 1080 -601
1195 -1216 28 -148 25 -413 -5 -555 -56 -265 -158 -476 -328 -682 -114 -138
-236 -238 -428 -350 -160 -95 -273 -205 -334 -328 -62 -127 -71 -171 -81 -395
-10 -228 -26 -309 -90 -443 -95 -199 -233 -337 -431 -432 -132 -63 -221 -83
-379 -84 -112 -1 -149 3 -218 22 -92 25 -178 65 -262 122 -63 43 -182 163
-227 230 -85 126 -157 315 -190 500 -17 98 -18 180 -18 1175 l0 1070 23 114
c41 200 103 367 197 526 244 415 636 680 1105 745 100 14 360 3 471 -19z"/>
<path d="M1645 4499 c-473 -68 -870 -437 -1000 -932 -38 -142 -45 -237 -45
-569 l0 -308 173 0 c222 0 258 -9 338 -89 44 -44 61 -70 73 -111 34 -115 12
-206 -73 -291 -80 -79 -116 -89 -333 -89 l-168 0 0 -150 0 -150 178 0 c117 0
201 5 247 15 145 31 275 120 362 247 228 336 52 797 -342 898 -43 11 -96 20
-118 20 l-40 0 6 203 c4 160 9 218 25 279 50 187 129 333 246 456 87 92 169
151 278 201 131 61 201 75 363 75 169 -1 251 -20 400 -93 231 -114 409 -332
477 -586 31 -115 30 -336 -1 -450 -60 -224 -204 -421 -390 -536 -220 -135
-290 -187 -386 -283 -156 -157 -265 -331 -330 -531 -33 -101 -65 -274 -65
-354 l0 -41 149 0 148 0 8 82 c29 332 222 625 532 808 150 88 225 145 319 242
166 172 270 366 320 598 25 119 26 363 0 480 -80 367 -314 673 -643 839 -215
108 -478 153 -708 120z"/>
<path d="M1662 3890 c-221 -58 -386 -224 -442 -446 -11 -43 -20 -92 -20 -111
l0 -33 149 0 149 0 7 47 c14 96 82 186 175 234 64 33 185 33 255 1 95 -44 166
-137 181 -239 l6 -43 149 0 149 0 0 33 c0 57 -38 185 -76 258 -125 238 -420
367 -682 299z"/>
<path d="M4439 3883 c-425 -457 -607 -1094 -488 -1709 66 -346 254 -712 493
-962 l40 -42 103 102 c57 57 103 106 103 110 0 4 -30 40 -66 80 -174 193 -315
472 -373 739 -109 508 32 1053 373 1438 36 41 66 77 66 80 0 4 -46 53 -103
109 l-103 103 -45 -48z"/>
<path d="M4855 3448 c-155 -172 -264 -392 -316 -638 -31 -146 -31 -372 -1
-516 53 -249 164 -475 315 -639 l55 -60 105 104 105 104 -69 86 c-212 261
-284 603 -199 936 30 118 116 284 198 386 l70 86 -102 102 c-56 55 -104 101
-108 101 -3 0 -27 -24 -53 -52z"/>
</g>
</svg>
